<svg xmlns="http://www.w3.org/2000/svg" viewBox="0 0 200 120">
  <!-- Recreation of the Ministry of Tourism logo based on the image -->
  <defs>
    <radialGradient id="orangeGrad" cx="50%" cy="50%" r="50%">
      <stop offset="0%" style="stop-color:#ff9500;stop-opacity:1" />
      <stop offset="100%" style="stop-color:#ff6600;stop-opacity:1" />
    </radialGradient>
    <radialGradient id="purpleGrad" cx="50%" cy="50%" r="50%">
      <stop offset="0%" style="stop-color:#cc3399;stop-opacity:1" />
      <stop offset="100%" style="stop-color:#990066;stop-opacity:1" />
    </radialGradient>
    <radialGradient id="blueGrad" cx="50%" cy="50%" r="50%">
      <stop offset="0%" style="stop-color:#0066cc;stop-opacity:1" />
      <stop offset="100%" style="stop-color:#003399;stop-opacity:1" />
    </radialGradient>
  </defs>

  <!-- Left figure (purple/magenta) -->
  <g transform="translate(20,20)">
    <!-- Head -->
    <circle cx="15" cy="15" r="8" fill="url(#purpleGrad)"/>
    <!-- Arms raised -->
    <path d="M5 25 Q15 15 25 25" stroke="url(#purpleGrad)" stroke-width="4" fill="none"/>
    <!-- Body -->
    <rect x="10" y="25" width="10" height="25" fill="url(#purpleGrad)" rx="2"/>
    <!-- Legs -->
    <rect x="8" y="50" width="6" height="20" fill="url(#purpleGrad)" rx="2"/>
    <rect x="16" y="50" width="6" height="20" fill="url(#purpleGrad)" rx="2"/>
  </g>

  <!-- Right figure (blue) -->
  <g transform="translate(140,20)">
    <!-- Head -->
    <circle cx="15" cy="15" r="8" fill="url(#blueGrad)"/>
    <!-- Arms raised -->
    <path d="M5 25 Q15 15 25 25" stroke="url(#blueGrad)" stroke-width="4" fill="none"/>
    <!-- Body -->
    <rect x="10" y="25" width="10" height="25" fill="url(#blueGrad)" rx="2"/>
    <!-- Legs -->
    <rect x="8" y="50" width="6" height="20" fill="url(#blueGrad)" rx="2"/>
    <rect x="16" y="50" width="6" height="20" fill="url(#blueGrad)" rx="2"/>
  </g>

  <!-- Center orange circle/sun -->
  <circle cx="100" cy="25" r="12" fill="url(#orangeGrad)"/>

  <!-- Grape cluster (center-bottom) -->
  <g transform="translate(85,45)">
    <!-- Top row -->
    <circle cx="15" cy="5" r="4" fill="#66cc33"/>
    <circle cx="7" cy="10" r="4" fill="#66cc33"/>
    <circle cx="23" cy="10" r="4" fill="#66cc33"/>
    <!-- Second row -->
    <circle cx="11" cy="16" r="4" fill="#66cc33"/>
    <circle cx="19" cy="16" r="4" fill="#66cc33"/>
    <circle cx="15" cy="20" r="4" fill="#66cc33"/>
    <!-- Third row -->
    <circle cx="9" cy="24" r="4" fill="#66cc33"/>
    <circle cx="21" cy="24" r="4" fill="#66cc33"/>
    <circle cx="15" cy="28" r="4" fill="#66cc33"/>
    <!-- Bottom -->
    <circle cx="15" cy="34" r="4" fill="#66cc33"/>
  </g>
</svg>